{
 "cells": [
  {
   "cell_type": "code",
   "execution_count": 1,
   "metadata": {},
   "outputs": [
    {
     "name": "stdout",
     "output_type": "stream",
     "text": [
      "pygame 2.1.2 (SDL 2.0.16, Python 3.8.0)\n",
      "Hello from the pygame community. https://www.pygame.org/contribute.html\n"
     ]
    }
   ],
   "source": [
    "import pygame\n",
    "import pygame.camera\n",
    "import os\n",
    "import time\n",
    "import numpy as np"
   ]
  },
  {
   "cell_type": "code",
   "execution_count": 2,
   "metadata": {},
   "outputs": [],
   "source": [
    "pygame.init()\n",
    "pygame.camera.init()\n",
    "\n",
    "# Ensure we have somewhere for the frames\n",
    "# try:\n",
    "#     os.makedirs(\"Snaps\")\n",
    "# except OSError:\n",
    "#     pass\n",
    "\n",
    "# screen = pygame.display.set_mode((640, 480))\n",
    "\n",
    "cam = pygame.camera.Camera(\"/dev/video1\", (640, 480))\n",
    "cam.start()"
   ]
  },
  {
   "cell_type": "code",
   "execution_count": 3,
   "metadata": {},
   "outputs": [
    {
     "name": "stdout",
     "output_type": "stream",
     "text": [
      "32\n"
     ]
    }
   ],
   "source": [
    "file_num = 0\n",
    "done_capturing = False\n",
    "i = 0\n",
    "images = []\n",
    "\n",
    "start = time.time()\n",
    "while(time.time() - start < 1):\n",
    "    # print(time.time() - start)\n",
    "    file_num = file_num + 1\n",
    "    # image = cam.get_image()\n",
    "    images.append(pygame.surfarray.array3d(cam.get_image()))\n",
    "    # print(time.time() - start)\n",
    "    # i+= 1\n",
    "    # screen.blit(image, (0,0))\n",
    "    # pygame.display.update()\n",
    "\n",
    "    # Save every frame\n",
    "    # filename = \"Snaps/%04d.png\" % file_num\n",
    "    # pygame.image.save(image, filename)\n",
    "\n",
    "    # for event in pygame.event.get():\n",
    "    #     if event.type == pygame.QUIT:\n",
    "    #         done_capturing = True\n",
    "print(len(images))\n",
    "np.save('images.npy', images, allow_pickle=True)"
   ]
  },
  {
   "cell_type": "code",
   "execution_count": 7,
   "metadata": {},
   "outputs": [
    {
     "name": "stderr",
     "output_type": "stream",
     "text": [
      "ffmpeg version 4.4.2-0ubuntu0.22.04.1 Copyright (c) 2000-2021 the FFmpeg developers\n",
      "  built with gcc 11 (Ubuntu 11.2.0-19ubuntu1)\n",
      "  configuration: --prefix=/usr --extra-version=0ubuntu0.22.04.1 --toolchain=hardened --libdir=/usr/lib/x86_64-linux-gnu --incdir=/usr/include/x86_64-linux-gnu --arch=amd64 --enable-gpl --disable-stripping --enable-gnutls --enable-ladspa --enable-libaom --enable-libass --enable-libbluray --enable-libbs2b --enable-libcaca --enable-libcdio --enable-libcodec2 --enable-libdav1d --enable-libflite --enable-libfontconfig --enable-libfreetype --enable-libfribidi --enable-libgme --enable-libgsm --enable-libjack --enable-libmp3lame --enable-libmysofa --enable-libopenjpeg --enable-libopenmpt --enable-libopus --enable-libpulse --enable-librabbitmq --enable-librubberband --enable-libshine --enable-libsnappy --enable-libsoxr --enable-libspeex --enable-libsrt --enable-libssh --enable-libtheora --enable-libtwolame --enable-libvidstab --enable-libvorbis --enable-libvpx --enable-libwebp --enable-libx265 --enable-libxml2 --enable-libxvid --enable-libzimg --enable-libzmq --enable-libzvbi --enable-lv2 --enable-omx --enable-openal --enable-opencl --enable-opengl --enable-sdl2 --enable-pocketsphinx --enable-librsvg --enable-libmfx --enable-libdc1394 --enable-libdrm --enable-libiec61883 --enable-chromaprint --enable-frei0r --enable-libx264 --enable-shared\n",
      "  libavutil      56. 70.100 / 56. 70.100\n",
      "  libavcodec     58.134.100 / 58.134.100\n",
      "  libavformat    58. 76.100 / 58. 76.100\n",
      "  libavdevice    58. 13.100 / 58. 13.100\n",
      "  libavfilter     7.110.100 /  7.110.100\n",
      "  libswscale      5.  9.100 /  5.  9.100\n",
      "  libswresample   3.  9.100 /  3.  9.100\n",
      "  libpostproc    55.  9.100 / 55.  9.100\n",
      "Input #0, image2, from 'Snaps/%04d.png':\n",
      "  Duration: 00:00:32.13, start: 0.000000, bitrate: N/A\n",
      "  Stream #0:0: Video: png, rgb24(pc), 640x480, 8 fps, 8 tbr, 8 tbn, 8 tbc\n",
      "Please use -q:a or -q:v, -qscale is ambiguous\n",
      "Stream mapping:\n",
      "  Stream #0:0 -> #0:0 (png (native) -> mpeg4 (native))\n",
      "Press [q] to stop, [?] for help\n",
      "Output #0, avi, to 'result.avi':\n",
      "  Metadata:\n",
      "    ISFT            : Lavf58.76.100\n",
      "  Stream #0:0: Video: mpeg4 (FMP4 / 0x34504D46), yuv420p(tv, progressive), 640x480 [SAR 1:1 DAR 4:3], q=2-31, 200 kb/s, 8 fps, 8 tbn\n",
      "    Metadata:\n",
      "      encoder         : Lavc58.134.100 mpeg4\n",
      "    Side data:\n",
      "      cpb: bitrate max/min/avg: 0/0/200000 buffer size: 0 vbv_delay: N/A\n",
      "frame=  257 fps=0.0 q=0.0 Lsize=    3089kB time=00:00:32.12 bitrate= 787.7kbits/s speed=38.3x    \n",
      "video:3077kB audio:0kB subtitle:0kB other streams:0kB global headers:0kB muxing overhead: 0.382563%\n"
     ]
    },
    {
     "data": {
      "text/plain": [
       "0"
      ]
     },
     "execution_count": 7,
     "metadata": {},
     "output_type": "execute_result"
    }
   ],
   "source": [
    "os.system(\"avconv -r 8 -f image2 -i Snaps/%04d.png -y -qscale 0 -s 640x480 -aspect 4:3 result.avi\")"
   ]
  }
 ],
 "metadata": {
  "kernelspec": {
   "display_name": "Python 3.8.0 ('gaze38')",
   "language": "python",
   "name": "python3"
  },
  "language_info": {
   "codemirror_mode": {
    "name": "ipython",
    "version": 3
   },
   "file_extension": ".py",
   "mimetype": "text/x-python",
   "name": "python",
   "nbconvert_exporter": "python",
   "pygments_lexer": "ipython3",
   "version": "3.8.0"
  },
  "orig_nbformat": 4,
  "vscode": {
   "interpreter": {
    "hash": "7a3ebf4acb24d743a48b98974d2a7978e9d00eb07f273601fcf6c48254b08094"
   }
  }
 },
 "nbformat": 4,
 "nbformat_minor": 2
}
